<svg xmlns="http://www.w3.org/2000/svg" viewBox="0 0 32 32">
  <defs>
    <linearGradient id="g" x1="0%" y1="0%" x2="100%" y2="100%">
      <stop offset="0%" style="stop-color:#f76da2"/>
      <stop offset="100%" style="stop-color:#c21249"/>
    </linearGradient>
  </defs>
  <rect width="32" height="32" rx="8" fill="url(#g)"/>
  <path d="M16 26s-7-4.5-7-10c0-3.3 2.7-6 6-6 1.3 0 2.5.4 3.5 1.2-.5-.8-1.5-1.2-2.5-1.2-2.2 0-4 1.8-4 4 0 3.5 4 6.5 4 6.5s4-3 4-6.5c0-2.2-1.8-4-4-4-1 0-2 .4-2.5 1.2 1-.8 2.2-1.2 3.5-1.2 3.3 0 6 2.7 6 6C23 21.5 16 26 16 26z" fill="white" opacity="0.95"/>
</svg>